<?xml version="1.0" encoding="UTF-8"?> <svg xmlns="http://www.w3.org/2000/svg" width="86.947" height="64.858" viewBox="0 0 86.947 64.858"><g id="Group_1" data-name="Group 1" transform="translate(-165.357 -60)"><text id="L" transform="translate(210.031 92)" font-size="34" font-family="Vidaloka-Regular, Vidaloka "><tspan x="0" y="0">L</tspan></text><text id="G" transform="translate(228.305 114.246)" font-size="34" font-family="Vidaloka-Regular, Vidaloka "><tspan x="0" y="0">G</tspan></text><path id="Union_1" data-name="Union 1" d="M17.194,62.871V51.806C5.665,51.213,0,45.77,0,45.77L13.245,20.613,9.606,6.062a28.705,28.705,0,0,1,7.586-2.048C17.356,1.657,17.888,0,19.507,0s2.16,1.687,2.319,4.079a28.955,28.955,0,0,1,7.069,1.984l-3.821,14.2L38.5,45.77s-5.71,5.486-17.333,6.043V62.871a1.986,1.986,0,1,1-3.973,0Z" transform="translate(165.357 60)"></path><line id="Line_1" data-name="Line 1" x1="23.835" y2="34.957" transform="translate(219.373 74.52)" fill="none" stroke="#000" stroke-linecap="round" stroke-width="1"></line></g></svg> 